<svg id="svg" version="1.1" xmlns="http://www.w3.org/2000/svg" xmlns:xlink="http://www.w3.org/1999/xlink" width="400" height="400" viewBox="0, 0, 400,400"><g id="svgg"><path id="path0" d="M192.756 59.809 C 164.777 66.079,154.249 99.450,173.694 120.236 C 178.514 125.389,184.225 128.664,192.200 130.849 C 194.891 131.586,205.109 131.586,207.800 130.849 C 225.510 125.998,236.086 112.744,236.086 95.400 C 236.086 72.495,214.665 54.900,192.756 59.809 M194.000 140.013 C 187.525 140.505,178.095 142.638,173.200 144.716 C 159.738 150.432,150.129 157.458,141.908 167.600 C 139.672 170.359,135.200 176.927,135.200 177.452 C 135.200 177.576,134.822 178.208,134.359 178.858 L 133.518 180.039 134.659 181.717 C 137.402 185.754,152.973 200.000,154.642 200.000 C 154.759 200.000,155.633 200.535,156.584 201.189 C 162.658 205.368,174.707 210.085,184.000 211.922 C 214.379 217.926,249.229 204.918,265.455 181.519 L 266.482 180.039 265.641 178.858 C 265.178 178.208,264.800 177.576,264.800 177.452 C 264.800 176.936,260.342 170.375,258.106 167.600 C 242.615 148.379,218.791 138.127,194.000 140.013 " stroke="none" fill="#5cccac" fill-rule="evenodd"></path><path id="path1" d="M189.600 9.062 C 182.070 9.784,179.681 10.146,172.400 11.673 C 167.277 12.747,158.332 15.373,155.000 16.781 C 154.560 16.967,153.570 17.349,152.800 17.630 C 146.419 19.958,132.976 27.124,127.751 30.983 C 126.844 31.652,124.864 33.095,123.351 34.188 C 97.836 52.626,79.101 83.458,73.763 115.800 C 73.400 118.000,72.945 119.971,72.751 120.180 C 72.558 120.389,72.400 121.795,72.400 123.304 C 72.400 125.031,72.252 125.956,72.000 125.800 C 71.366 125.408,71.465 143.294,72.100 143.979 C 72.506 144.416,72.488 144.458,72.000 144.200 C 71.512 143.942,71.494 143.984,71.900 144.421 C 72.206 144.751,72.400 146.103,72.400 147.904 C 72.400 149.764,72.547 150.756,72.800 150.600 C 73.050 150.446,73.200 151.263,73.200 152.776 C 73.200 154.125,73.377 155.200,73.600 155.200 C 73.820 155.200,74.000 156.010,74.000 157.000 C 74.000 157.990,74.180 158.800,74.400 158.800 C 74.620 158.800,74.800 159.520,74.800 160.400 C 74.800 161.311,74.992 162.000,75.247 162.000 C 75.518 162.000,75.611 162.431,75.484 163.096 C 75.369 163.698,75.427 164.477,75.614 164.827 C 75.801 165.176,76.018 165.936,76.095 166.516 C 76.173 167.095,76.363 167.697,76.518 167.852 C 76.673 168.007,76.800 168.633,76.800 169.243 C 76.800 169.853,76.944 170.442,77.121 170.551 C 77.297 170.660,77.693 171.672,78.000 172.800 C 78.307 173.928,78.703 174.940,78.879 175.049 C 79.056 175.158,79.200 175.687,79.200 176.224 C 79.200 176.761,79.380 177.200,79.600 177.200 C 79.820 177.200,80.000 177.650,80.000 178.200 C 80.000 178.750,80.180 179.200,80.400 179.200 C 80.620 179.200,80.800 179.560,80.800 180.000 C 80.800 180.440,80.980 180.800,81.200 180.800 C 81.420 180.800,81.600 181.079,81.600 181.419 C 81.600 181.760,81.960 182.784,82.400 183.694 C 82.840 184.605,83.200 185.586,83.200 185.875 C 83.200 186.164,83.380 186.400,83.600 186.400 C 83.820 186.400,84.000 186.760,84.000 187.200 C 84.000 187.640,84.180 188.000,84.400 188.000 C 84.620 188.000,84.800 188.270,84.800 188.600 C 84.800 188.930,84.980 189.200,85.200 189.200 C 85.420 189.200,85.600 189.434,85.600 189.720 C 85.600 190.456,86.541 192.393,86.900 192.397 C 87.065 192.399,87.200 192.745,87.200 193.167 C 87.200 193.588,87.335 193.993,87.500 194.067 C 87.665 194.140,88.233 195.055,88.763 196.100 C 89.292 197.145,89.877 198.000,90.063 198.000 C 90.248 198.000,90.400 198.236,90.400 198.525 C 90.400 198.813,90.760 199.436,91.200 199.908 C 91.640 200.380,92.000 201.044,92.000 201.383 C 92.000 201.722,92.191 202.000,92.424 202.000 C 92.657 202.000,92.753 202.153,92.637 202.339 C 92.522 202.526,92.826 203.108,93.314 203.632 C 93.801 204.156,94.155 204.723,94.100 204.892 C 94.045 205.062,94.180 205.200,94.400 205.200 C 94.620 205.200,94.800 205.386,94.800 205.613 C 94.800 205.841,95.385 206.599,96.100 207.298 C 96.815 207.997,97.367 208.666,97.327 208.784 C 97.286 208.903,97.781 209.580,98.427 210.289 C 99.072 210.998,99.600 211.675,99.600 211.793 C 99.600 212.052,101.204 213.906,103.500 216.301 C 104.435 217.276,105.200 218.338,105.200 218.660 C 105.200 218.983,105.380 219.136,105.600 219.000 C 105.820 218.864,106.000 219.033,106.000 219.376 C 106.000 219.719,106.225 219.955,106.500 219.900 C 106.775 219.845,106.955 220.025,106.900 220.300 C 106.845 220.575,106.997 220.755,107.237 220.700 C 107.478 220.645,107.883 220.960,108.137 221.400 C 108.392 221.840,108.932 222.470,109.337 222.800 C 109.743 223.130,110.546 223.850,111.122 224.400 C 111.698 224.950,112.312 225.355,112.485 225.300 C 112.658 225.245,112.800 225.500,112.800 225.867 C 112.800 226.233,112.902 226.431,113.027 226.307 C 113.152 226.182,114.533 227.322,116.097 228.840 C 117.661 230.358,119.114 231.600,119.327 231.600 C 119.540 231.600,120.229 232.140,120.860 232.800 C 121.491 233.460,122.166 234.000,122.361 234.000 C 122.556 234.000,123.258 234.495,123.922 235.100 C 124.586 235.705,125.370 236.260,125.664 236.332 C 125.959 236.405,126.344 236.720,126.520 237.032 C 126.696 237.345,127.106 237.600,127.432 237.600 C 127.758 237.600,128.129 237.870,128.255 238.200 C 128.382 238.530,128.736 238.800,129.043 238.800 C 129.349 238.800,129.600 238.991,129.600 239.224 C 129.600 239.457,129.746 239.557,129.925 239.446 C 130.104 239.336,130.757 239.681,131.377 240.214 C 131.997 240.747,132.661 241.086,132.852 240.968 C 133.043 240.850,133.200 240.943,133.200 241.176 C 133.200 241.409,133.560 241.600,134.000 241.600 C 134.440 241.600,134.800 241.780,134.800 242.000 C 134.800 242.220,135.078 242.400,135.417 242.400 C 135.756 242.400,136.420 242.760,136.892 243.200 C 137.364 243.640,137.987 244.000,138.275 244.000 C 138.564 244.000,138.800 244.180,138.800 244.400 C 138.800 244.620,139.160 244.800,139.600 244.800 C 140.040 244.800,140.400 244.980,140.400 245.200 C 140.400 245.420,140.760 245.600,141.200 245.600 C 141.640 245.600,142.000 245.780,142.000 246.000 C 142.000 246.220,142.371 246.400,142.824 246.400 C 143.277 246.400,143.536 246.580,143.400 246.800 C 143.264 247.020,143.523 247.200,143.976 247.200 C 144.429 247.200,144.800 247.380,144.800 247.600 C 144.800 247.820,145.261 248.000,145.824 248.000 C 146.495 248.000,146.749 248.159,146.562 248.462 C 146.404 248.718,146.450 248.816,146.667 248.682 C 146.882 248.550,147.560 248.702,148.174 249.020 C 148.789 249.339,149.541 249.600,149.846 249.600 C 150.151 249.600,150.400 249.780,150.400 250.000 C 150.400 250.220,150.760 250.400,151.200 250.400 C 151.640 250.400,152.000 250.580,152.000 250.800 C 152.000 251.020,152.540 251.200,153.200 251.200 C 154.213 251.200,154.400 251.356,154.400 252.200 C 154.400 252.750,154.580 253.200,154.800 253.200 C 155.020 253.200,155.200 253.841,155.200 254.624 C 155.200 255.471,155.362 255.947,155.600 255.800 C 155.833 255.656,156.000 256.063,156.000 256.776 C 156.000 257.449,156.180 258.000,156.400 258.000 C 156.620 258.000,156.800 258.594,156.800 259.320 C 156.800 260.046,156.949 260.811,157.130 261.020 C 157.614 261.576,158.976 266.631,158.714 266.898 C 158.660 266.954,158.913 267.426,159.277 267.946 C 159.642 268.466,159.851 269.123,159.743 269.405 C 159.634 269.688,159.738 270.038,159.973 270.183 C 160.208 270.328,160.400 271.077,160.400 271.847 C 160.400 272.679,160.562 273.147,160.800 273.000 C 161.135 272.793,161.428 274.558,161.247 275.700 C 161.221 275.865,161.380 276.000,161.600 276.000 C 161.820 276.000,162.000 276.439,162.000 276.976 C 162.000 277.513,162.180 278.064,162.400 278.200 C 162.620 278.336,162.800 278.876,162.800 279.400 C 162.800 279.924,162.980 280.464,163.200 280.600 C 163.420 280.736,163.600 281.379,163.600 282.029 C 163.600 282.679,163.780 283.568,164.000 284.005 C 164.220 284.442,164.580 285.158,164.800 285.595 C 165.020 286.032,165.200 286.842,165.200 287.395 C 165.200 287.948,165.380 288.400,165.600 288.400 C 165.820 288.400,166.000 288.929,166.000 289.576 C 166.000 290.223,166.180 290.864,166.400 291.000 C 166.620 291.136,166.800 291.766,166.800 292.400 C 166.800 293.034,166.980 293.664,167.200 293.800 C 167.420 293.936,167.600 294.577,167.600 295.224 C 167.600 295.871,167.780 296.400,168.000 296.400 C 168.220 296.400,168.400 296.839,168.400 297.376 C 168.400 297.913,168.580 298.464,168.800 298.600 C 169.020 298.736,169.200 299.362,169.200 299.990 C 169.200 300.619,169.374 301.193,169.587 301.267 C 169.800 301.340,170.018 301.973,170.070 302.672 C 170.123 303.372,170.309 303.856,170.483 303.749 C 170.657 303.641,170.800 304.093,170.800 304.753 C 170.800 305.413,170.980 306.064,171.200 306.200 C 171.420 306.336,171.600 306.876,171.600 307.400 C 171.600 307.924,171.780 308.464,172.000 308.600 C 172.220 308.736,172.400 309.377,172.400 310.024 C 172.400 310.671,172.580 311.200,172.800 311.200 C 173.020 311.200,173.200 311.819,173.200 312.576 C 173.200 313.333,173.380 314.064,173.600 314.200 C 173.820 314.336,174.000 314.987,174.000 315.647 C 174.000 316.307,174.160 316.748,174.355 316.628 C 174.675 316.430,174.860 317.026,175.368 319.877 C 175.454 320.360,175.670 320.990,175.849 321.277 C 176.027 321.565,176.189 322.160,176.208 322.600 C 176.227 323.040,176.533 324.062,176.889 324.871 C 177.244 325.681,177.594 326.851,177.665 327.471 C 177.737 328.092,178.007 329.027,178.266 329.550 C 178.525 330.072,178.642 330.747,178.526 331.050 C 178.409 331.352,178.514 331.600,178.757 331.600 C 179.001 331.600,179.200 332.039,179.200 332.576 C 179.200 333.113,179.380 333.664,179.600 333.800 C 179.820 333.936,180.000 334.476,180.000 335.000 C 180.000 335.524,180.180 336.064,180.400 336.200 C 180.620 336.336,180.800 337.067,180.800 337.824 C 180.800 338.581,180.980 339.200,181.200 339.200 C 181.420 339.200,181.600 339.740,181.600 340.400 C 181.600 341.060,181.780 341.600,182.000 341.600 C 182.220 341.600,182.400 342.039,182.400 342.576 C 182.400 343.113,182.580 343.664,182.800 343.800 C 183.020 343.936,183.200 344.451,183.200 344.944 C 183.200 345.437,183.425 346.082,183.700 346.379 C 184.106 346.816,184.088 346.858,183.600 346.600 C 183.112 346.342,183.094 346.384,183.500 346.821 C 183.775 347.118,184.000 347.864,184.000 348.480 C 184.000 349.096,184.180 349.600,184.400 349.600 C 184.620 349.600,184.800 350.039,184.800 350.576 C 184.800 351.113,184.980 351.664,185.200 351.800 C 185.420 351.936,185.600 352.487,185.600 353.024 C 185.600 353.561,185.780 354.000,186.000 354.000 C 186.220 354.000,186.400 354.540,186.400 355.200 C 186.400 355.860,186.542 356.400,186.715 356.400 C 186.888 356.400,187.074 356.985,187.128 357.700 C 187.181 358.415,187.400 359.060,187.613 359.133 C 187.826 359.207,188.000 359.882,188.000 360.633 C 188.000 361.385,188.180 362.000,188.400 362.000 C 188.620 362.000,188.800 362.540,188.800 363.200 C 188.800 363.860,188.980 364.400,189.200 364.400 C 189.420 364.400,189.600 365.041,189.600 365.824 C 189.600 366.607,189.760 367.148,189.957 367.027 C 190.153 366.906,190.410 367.390,190.528 368.103 C 190.884 370.252,191.242 371.756,191.597 372.600 C 192.332 374.345,192.779 376.110,192.572 376.446 C 192.451 376.641,192.543 376.800,192.776 376.800 C 193.009 376.800,193.200 377.239,193.200 377.776 C 193.200 378.313,193.341 378.840,193.513 378.946 C 193.685 379.052,193.870 379.731,193.925 380.454 C 193.980 381.177,194.194 381.873,194.400 382.000 C 194.606 382.127,194.818 382.797,194.870 383.488 C 194.923 384.179,195.109 384.656,195.283 384.549 C 195.559 384.378,195.800 385.995,195.637 386.930 C 195.606 387.111,195.765 387.145,195.990 387.006 C 196.233 386.856,196.400 387.217,196.400 387.896 C 196.400 388.525,196.574 389.214,196.787 389.427 C 196.999 389.639,197.216 390.383,197.269 391.079 C 197.323 391.775,197.509 392.256,197.683 392.149 C 197.857 392.041,198.000 392.493,198.000 393.153 C 198.000 393.813,198.180 394.464,198.400 394.600 C 198.620 394.736,198.800 395.377,198.800 396.024 C 198.800 397.064,198.939 397.200,200.000 397.200 C 201.061 397.200,201.200 397.064,201.200 396.024 C 201.200 395.377,201.380 394.736,201.600 394.600 C 201.820 394.464,202.000 393.813,202.000 393.153 C 202.000 392.493,202.143 392.041,202.317 392.149 C 202.491 392.256,202.677 391.775,202.731 391.079 C 202.784 390.383,203.001 389.639,203.213 389.427 C 203.426 389.214,203.600 388.626,203.600 388.120 C 203.600 387.614,203.780 387.200,204.000 387.200 C 204.220 387.200,204.379 387.065,204.353 386.900 C 204.204 385.958,204.447 384.382,204.715 384.548 C 204.888 384.655,205.069 384.279,205.116 383.712 C 205.163 383.145,205.358 382.483,205.550 382.240 C 205.742 381.998,206.019 381.170,206.164 380.400 C 206.749 377.313,206.906 376.800,207.269 376.800 C 207.477 376.800,207.556 376.652,207.445 376.472 C 207.216 376.102,208.055 373.011,208.507 372.560 C 208.668 372.399,208.800 371.757,208.800 371.133 C 208.800 370.497,209.019 369.997,209.300 369.994 C 209.633 369.990,209.600 369.858,209.200 369.600 C 208.800 369.342,208.767 369.210,209.100 369.206 C 209.390 369.203,209.600 368.685,209.600 367.976 C 209.600 367.263,209.767 366.856,210.000 367.000 C 210.238 367.147,210.400 366.671,210.400 365.824 C 210.400 365.041,210.580 364.400,210.800 364.400 C 211.020 364.400,211.200 363.860,211.200 363.200 C 211.200 362.540,211.380 362.000,211.600 362.000 C 211.820 362.000,212.000 361.370,212.000 360.600 C 212.000 359.830,212.180 359.200,212.400 359.200 C 212.620 359.200,212.800 358.750,212.800 358.200 C 212.800 357.650,212.943 357.200,213.118 357.200 C 213.293 357.200,213.481 356.525,213.536 355.700 C 213.590 354.875,213.807 354.140,214.018 354.067 C 214.228 353.993,214.400 353.408,214.400 352.767 C 214.400 352.125,214.580 351.600,214.800 351.600 C 215.020 351.600,215.200 351.150,215.200 350.600 C 215.200 350.050,215.380 349.600,215.600 349.600 C 215.820 349.600,216.000 349.071,216.000 348.424 C 216.000 347.777,216.141 347.160,216.313 347.054 C 216.485 346.948,216.671 346.265,216.726 345.537 C 216.782 344.809,217.001 344.039,217.213 343.827 C 217.426 343.614,217.600 343.026,217.600 342.520 C 217.600 342.014,217.780 341.600,218.000 341.600 C 218.220 341.600,218.400 341.248,218.400 340.819 C 218.400 340.389,218.565 339.624,218.767 339.119 C 219.550 337.161,219.732 336.559,219.892 335.400 C 219.984 334.740,220.225 334.029,220.429 333.820 C 220.633 333.611,220.800 333.026,220.800 332.520 C 220.800 332.014,220.961 331.600,221.158 331.600 C 221.355 331.600,221.606 330.925,221.717 330.100 C 221.961 328.284,222.527 326.216,223.222 324.600 C 223.507 323.940,223.762 323.040,223.791 322.600 C 223.819 322.160,224.034 321.440,224.267 321.000 C 224.501 320.560,224.617 319.991,224.525 319.737 C 224.433 319.482,224.547 319.156,224.779 319.013 C 225.010 318.870,225.200 318.213,225.200 317.553 C 225.200 316.855,225.367 316.456,225.600 316.600 C 225.833 316.744,226.000 316.345,226.000 315.647 C 226.000 314.987,226.180 314.336,226.400 314.200 C 226.620 314.064,226.800 313.333,226.800 312.576 C 226.800 311.819,226.980 311.200,227.200 311.200 C 227.420 311.200,227.600 310.660,227.600 310.000 C 227.600 309.340,227.780 308.800,228.000 308.800 C 228.220 308.800,228.400 308.271,228.400 307.624 C 228.400 306.977,228.580 306.336,228.800 306.200 C 229.020 306.064,229.200 305.413,229.200 304.753 C 229.200 304.093,229.343 303.641,229.517 303.749 C 229.691 303.856,229.877 303.372,229.930 302.672 C 229.982 301.973,230.200 301.340,230.413 301.267 C 230.626 301.193,230.800 300.619,230.800 299.990 C 230.800 299.362,230.980 298.736,231.200 298.600 C 231.420 298.464,231.600 297.913,231.600 297.376 C 231.600 296.839,231.780 296.400,232.000 296.400 C 232.220 296.400,232.400 295.770,232.400 295.000 C 232.400 294.230,232.580 293.600,232.800 293.600 C 233.020 293.600,233.200 293.071,233.200 292.424 C 233.200 291.777,233.380 291.136,233.600 291.000 C 233.820 290.864,234.000 290.223,234.000 289.576 C 234.000 288.929,234.180 288.400,234.400 288.400 C 234.620 288.400,234.800 287.948,234.800 287.395 C 234.800 286.842,234.980 286.032,235.200 285.595 C 235.420 285.158,235.780 284.442,236.000 284.005 C 236.220 283.568,236.400 282.906,236.400 282.534 C 236.400 281.777,237.111 279.371,237.649 278.305 C 237.842 277.923,238.000 277.248,238.000 276.805 C 238.000 276.362,238.142 276.000,238.315 276.000 C 238.488 276.000,238.674 275.415,238.728 274.700 C 238.781 273.985,239.000 273.340,239.213 273.267 C 239.426 273.193,239.600 272.529,239.600 271.790 C 239.600 271.052,239.792 270.328,240.027 270.183 C 240.262 270.038,240.366 269.688,240.257 269.405 C 240.149 269.123,240.358 268.466,240.723 267.946 C 241.087 267.426,241.352 266.910,241.310 266.800 C 241.115 266.281,242.384 261.579,242.870 261.020 C 243.051 260.811,243.200 260.046,243.200 259.320 C 243.200 258.594,243.380 258.000,243.600 258.000 C 243.820 258.000,244.000 257.449,244.000 256.776 C 244.000 256.063,244.167 255.656,244.400 255.800 C 244.639 255.947,244.800 255.463,244.800 254.600 C 244.800 253.737,244.961 253.253,245.200 253.400 C 245.433 253.544,245.600 253.137,245.600 252.424 C 245.600 251.385,245.751 251.200,246.600 251.200 C 247.150 251.200,247.600 251.020,247.600 250.800 C 247.600 250.580,247.955 250.400,248.388 250.400 C 248.821 250.400,249.817 250.040,250.600 249.600 C 251.383 249.160,252.379 248.800,252.812 248.800 C 253.245 248.800,253.601 248.665,253.603 248.500 C 253.607 248.135,255.549 247.200,256.303 247.200 C 256.602 247.200,256.736 247.020,256.600 246.800 C 256.464 246.580,256.723 246.400,257.176 246.400 C 257.629 246.400,258.000 246.220,258.000 246.000 C 258.000 245.780,258.360 245.600,258.800 245.600 C 259.240 245.600,259.600 245.420,259.600 245.200 C 259.600 244.980,259.960 244.800,260.400 244.800 C 260.840 244.800,261.200 244.620,261.200 244.400 C 261.200 244.180,261.560 244.000,262.000 244.000 C 262.440 244.000,262.800 243.820,262.800 243.600 C 262.800 243.380,263.171 243.200,263.624 243.200 C 264.077 243.200,264.336 243.020,264.200 242.800 C 264.064 242.580,264.233 242.400,264.576 242.400 C 264.919 242.400,265.200 242.220,265.200 242.000 C 265.200 241.780,265.560 241.600,266.000 241.600 C 266.440 241.600,266.800 241.409,266.800 241.176 C 266.800 240.943,266.957 240.850,267.148 240.968 C 267.340 241.087,267.908 240.827,268.410 240.392 C 268.912 239.956,269.565 239.600,269.861 239.600 C 270.158 239.600,270.400 239.420,270.400 239.200 C 270.400 238.980,270.651 238.800,270.957 238.800 C 271.264 238.800,271.618 238.530,271.745 238.200 C 271.871 237.870,272.211 237.600,272.499 237.600 C 272.787 237.600,273.337 237.232,273.722 236.783 C 274.107 236.334,274.597 236.074,274.811 236.207 C 275.025 236.339,275.200 236.277,275.200 236.069 C 275.200 235.861,276.278 234.906,277.596 233.946 C 278.914 232.986,279.994 232.065,279.996 231.900 C 279.998 231.735,280.225 231.599,280.500 231.598 C 280.775 231.597,282.086 230.562,283.414 229.298 C 284.741 228.034,286.483 226.556,287.284 226.013 C 288.084 225.470,288.653 224.885,288.546 224.713 C 288.440 224.541,288.644 224.400,289.000 224.400 C 289.356 224.400,289.535 224.219,289.398 223.997 C 289.261 223.776,289.475 223.469,289.874 223.316 C 290.805 222.959,292.400 221.367,292.400 220.795 C 292.400 220.552,292.580 220.464,292.800 220.600 C 293.020 220.736,293.200 220.556,293.200 220.200 C 293.200 219.844,293.380 219.664,293.600 219.800 C 293.820 219.936,294.000 219.756,294.000 219.400 C 294.000 219.044,294.180 218.864,294.400 219.000 C 294.620 219.136,294.800 218.956,294.800 218.600 C 294.800 218.213,294.985 218.067,295.262 218.238 C 295.524 218.400,295.616 218.349,295.475 218.121 C 295.338 217.899,296.210 216.677,297.413 215.404 C 298.616 214.132,299.600 212.925,299.600 212.722 C 299.600 212.519,299.808 212.481,300.062 212.638 C 300.330 212.804,300.416 212.749,300.267 212.508 C 300.126 212.280,300.650 211.363,301.432 210.470 C 302.214 209.578,302.882 208.702,302.916 208.524 C 302.949 208.346,303.483 207.705,304.102 207.100 C 304.721 206.495,305.086 205.994,304.914 205.987 C 304.741 205.980,304.949 205.710,305.376 205.387 C 305.804 205.064,305.995 204.800,305.801 204.800 C 305.607 204.800,305.843 204.433,306.325 203.984 C 306.806 203.536,307.200 202.906,307.200 202.584 C 307.200 202.263,307.380 202.000,307.600 202.000 C 307.820 202.000,308.000 201.722,308.000 201.383 C 308.000 201.044,308.360 200.380,308.800 199.908 C 309.240 199.436,309.600 198.813,309.600 198.525 C 309.600 198.236,309.753 198.000,309.940 198.000 C 310.127 198.000,310.889 196.785,311.632 195.300 C 312.376 193.815,313.080 192.510,313.197 192.400 C 313.315 192.290,313.858 191.300,314.405 190.200 C 314.952 189.100,315.535 188.140,315.700 188.067 C 315.865 187.993,316.000 187.588,316.000 187.167 C 316.000 186.745,316.180 186.400,316.400 186.400 C 316.620 186.400,316.800 186.158,316.800 185.861 C 316.800 185.565,317.050 184.800,317.356 184.161 C 317.662 183.523,318.218 182.280,318.590 181.400 C 318.962 180.520,319.432 179.487,319.634 179.105 C 319.835 178.723,320.000 178.038,320.000 177.582 C 320.000 177.126,320.180 176.864,320.400 177.000 C 320.624 177.138,320.800 176.826,320.800 176.290 C 320.800 175.764,320.923 175.210,321.074 175.059 C 321.473 174.661,322.387 171.918,322.394 171.100 C 322.397 170.715,322.580 170.400,322.800 170.400 C 323.020 170.400,323.200 169.871,323.200 169.224 C 323.200 168.577,323.341 167.960,323.513 167.854 C 323.685 167.748,323.870 167.074,323.925 166.357 C 323.979 165.640,324.202 164.839,324.419 164.577 C 324.636 164.316,324.701 163.809,324.564 163.451 C 324.426 163.091,324.513 162.800,324.757 162.800 C 325.022 162.800,325.200 161.996,325.200 160.800 C 325.200 159.700,325.380 158.800,325.600 158.800 C 325.820 158.800,326.000 157.889,326.000 156.776 C 326.000 155.663,326.148 154.844,326.329 154.956 C 326.511 155.068,326.701 154.224,326.752 153.080 C 326.804 151.936,327.015 150.829,327.223 150.620 C 327.430 150.411,327.600 148.937,327.600 147.344 C 327.600 145.751,327.767 144.344,327.972 144.217 C 328.502 143.890,328.543 126.400,328.013 126.400 C 327.766 126.400,327.600 125.196,327.600 123.400 C 327.600 121.750,327.441 120.400,327.246 120.400 C 327.051 120.400,326.767 119.365,326.615 118.100 C 325.676 110.312,321.829 96.219,318.754 89.304 C 318.339 88.372,318.000 87.521,318.000 87.414 C 318.000 87.166,315.808 82.354,314.623 80.000 C 301.906 54.740,282.152 34.858,257.400 22.406 C 252.124 19.752,250.462 18.987,247.000 17.622 C 246.560 17.449,245.750 17.113,245.200 16.875 C 231.780 11.077,206.153 7.476,189.600 9.062 M211.800 37.164 C 213.340 37.384,215.680 37.759,217.000 37.998 C 218.320 38.236,220.076 38.533,220.903 38.658 C 221.729 38.783,222.505 39.045,222.626 39.242 C 222.748 39.439,223.366 39.600,224.000 39.600 C 224.634 39.600,225.264 39.780,225.400 40.000 C 225.536 40.220,226.166 40.400,226.800 40.400 C 227.434 40.400,228.064 40.580,228.200 40.800 C 228.336 41.020,228.799 41.200,229.229 41.200 C 229.659 41.200,230.323 41.359,230.705 41.553 C 231.392 41.903,232.751 42.473,234.500 43.146 C 240.344 45.396,246.866 48.810,252.354 52.492 C 254.030 53.616,255.490 54.649,255.600 54.787 C 255.710 54.925,256.423 55.474,257.184 56.007 C 261.016 58.686,270.967 68.630,273.588 72.400 C 274.123 73.170,274.669 73.890,274.800 74.000 C 274.931 74.110,275.475 74.830,276.008 75.600 C 276.542 76.370,277.298 77.349,277.689 77.775 C 278.080 78.202,278.400 78.787,278.400 79.075 C 278.400 79.364,278.559 79.600,278.754 79.600 C 278.949 79.600,279.401 80.185,279.758 80.900 C 280.115 81.615,280.944 83.100,281.600 84.200 C 282.996 86.542,285.551 91.749,286.703 94.600 C 288.691 99.520,289.200 100.954,289.200 101.630 C 289.200 102.027,289.380 102.464,289.600 102.600 C 289.820 102.736,290.000 103.366,290.000 104.000 C 290.000 104.634,290.180 105.264,290.400 105.400 C 290.620 105.536,290.800 106.166,290.800 106.800 C 290.800 107.434,290.980 108.064,291.200 108.200 C 291.420 108.336,291.600 109.121,291.600 109.944 C 291.600 110.767,291.763 111.611,291.961 111.820 C 292.160 112.029,292.433 113.100,292.567 114.200 C 292.702 115.300,293.016 117.640,293.266 119.400 C 294.067 125.046,293.740 144.137,292.807 146.200 C 292.608 146.640,292.345 147.765,292.223 148.700 C 291.717 152.560,291.498 153.616,291.158 153.826 C 290.961 153.948,290.800 154.429,290.800 154.895 C 290.800 155.796,290.135 158.139,289.551 159.295 C 289.358 159.677,289.200 160.264,289.200 160.600 C 289.200 160.936,289.035 161.523,288.834 161.905 C 288.633 162.287,287.890 164.130,287.184 166.000 C 285.147 171.393,279.042 182.736,277.962 183.133 C 277.763 183.207,277.600 183.522,277.600 183.833 C 277.600 184.145,277.459 184.400,277.286 184.400 C 277.114 184.400,276.657 184.933,276.272 185.585 C 275.887 186.237,275.346 187.002,275.070 187.285 C 274.793 187.568,274.295 188.194,273.963 188.676 C 270.818 193.233,262.181 201.791,256.670 205.809 C 255.169 206.904,253.459 208.208,252.870 208.706 C 252.282 209.204,251.305 209.833,250.700 210.103 C 250.095 210.374,249.600 210.731,249.600 210.898 C 249.600 211.064,249.330 211.200,249.000 211.200 C 248.670 211.200,248.400 211.336,248.400 211.502 C 248.400 211.669,247.815 212.059,247.100 212.370 C 246.385 212.681,245.710 213.052,245.600 213.193 C 244.602 214.477,228.276 221.185,226.124 221.196 C 225.642 221.198,225.148 221.360,225.027 221.556 C 224.818 221.895,223.857 222.122,220.500 222.625 C 219.675 222.748,218.640 223.009,218.200 223.204 C 217.760 223.399,216.500 223.664,215.400 223.793 C 214.300 223.922,211.780 224.218,209.800 224.450 C 203.488 225.190,187.348 224.897,185.400 224.007 C 184.960 223.806,183.790 223.553,182.800 223.444 C 180.542 223.197,177.481 222.604,175.400 222.011 C 174.520 221.760,173.260 221.410,172.600 221.234 C 169.988 220.534,163.778 218.331,163.420 217.976 C 163.211 217.769,162.812 217.600,162.533 217.600 C 161.573 217.600,152.350 212.829,149.441 210.828 C 148.459 210.153,147.463 209.600,147.228 209.600 C 146.993 209.600,146.800 209.462,146.800 209.294 C 146.800 209.126,146.080 208.544,145.200 208.000 C 144.320 207.456,143.600 206.887,143.600 206.735 C 143.600 206.583,143.359 206.400,143.064 206.329 C 141.160 205.870,128.193 193.663,126.632 190.861 C 126.430 190.497,125.971 189.930,125.613 189.600 C 125.255 189.270,124.529 188.370,124.000 187.600 C 123.471 186.830,122.919 186.110,122.772 186.000 C 121.167 184.793,111.600 167.730,111.600 166.072 C 111.600 165.807,111.420 165.232,111.200 164.795 C 110.980 164.358,110.620 163.642,110.400 163.205 C 110.180 162.768,110.000 162.059,110.000 161.629 C 110.000 161.199,109.820 160.736,109.600 160.600 C 109.380 160.464,109.200 159.924,109.200 159.400 C 109.200 158.876,109.020 158.336,108.800 158.200 C 108.580 158.064,108.400 157.434,108.400 156.800 C 108.400 156.166,108.220 155.536,108.000 155.400 C 107.780 155.264,107.600 154.569,107.600 153.856 C 107.600 153.143,107.438 152.389,107.241 152.180 C 107.044 151.971,106.779 151.080,106.653 150.200 C 106.526 149.320,106.232 147.430,105.998 146.000 C 105.564 143.355,104.790 134.708,104.726 131.800 C 104.695 130.395,104.980 126.902,105.835 118.200 C 105.964 116.880,106.235 115.629,106.435 115.420 C 106.636 115.211,106.800 114.277,106.800 113.344 C 106.800 112.411,106.980 111.536,107.200 111.400 C 107.420 111.264,107.600 110.533,107.600 109.776 C 107.600 109.019,107.780 108.400,108.000 108.400 C 108.220 108.400,108.400 107.781,108.400 107.024 C 108.400 106.267,108.580 105.536,108.800 105.400 C 109.020 105.264,109.200 104.724,109.200 104.200 C 109.200 103.676,109.380 103.136,109.600 103.000 C 109.820 102.864,110.000 102.401,110.000 101.971 C 110.000 101.541,110.166 100.877,110.368 100.495 C 110.570 100.113,111.139 98.720,111.631 97.400 C 113.977 91.107,120.721 78.626,122.077 78.067 C 122.255 77.993,122.400 77.712,122.400 77.442 C 122.400 77.172,122.721 76.602,123.114 76.175 C 123.507 75.749,124.092 75.023,124.414 74.563 C 127.200 70.583,134.317 63.006,138.400 59.673 C 139.390 58.865,140.470 57.924,140.800 57.583 C 141.130 57.241,142.030 56.529,142.800 56.000 C 143.570 55.471,144.290 54.919,144.400 54.772 C 145.523 53.279,158.788 45.764,163.600 43.895 C 164.150 43.681,164.913 43.348,165.295 43.153 C 165.677 42.959,166.262 42.800,166.595 42.800 C 166.928 42.800,167.200 42.620,167.200 42.400 C 167.200 42.180,167.639 42.000,168.176 42.000 C 168.713 42.000,169.264 41.820,169.400 41.600 C 169.536 41.380,170.076 41.200,170.600 41.200 C 171.124 41.200,171.664 41.020,171.800 40.800 C 171.936 40.580,172.566 40.400,173.200 40.400 C 173.834 40.400,174.464 40.220,174.600 40.000 C 174.736 39.780,175.366 39.600,176.000 39.600 C 176.634 39.600,177.252 39.439,177.374 39.242 C 177.495 39.045,178.271 38.783,179.097 38.658 C 179.924 38.533,181.680 38.239,183.000 38.003 C 184.320 37.768,186.909 37.407,188.753 37.201 C 190.597 36.996,192.217 36.716,192.353 36.580 C 192.713 36.220,208.508 36.695,211.800 37.164 " stroke="none" fill="#f47c6c" fill-rule="evenodd"></path><path id="path2" d="M192.800 37.601 C 186.468 38.034,182.063 38.774,176.000 40.424 C 173.376 41.138,167.193 43.173,165.800 43.780 C 160.474 46.104,158.918 46.847,155.400 48.751 C 153.200 49.942,150.071 51.835,148.447 52.958 C 146.822 54.081,145.210 55.180,144.863 55.400 C 144.517 55.620,143.986 56.028,143.682 56.306 C 143.379 56.584,142.474 57.304,141.672 57.906 C 140.376 58.878,136.485 62.380,134.222 64.610 C 131.757 67.040,127.440 71.906,125.807 74.095 C 124.779 75.473,123.547 77.110,123.069 77.733 C 117.920 84.447,110.821 99.704,108.753 108.500 C 108.559 109.325,108.217 110.765,107.993 111.700 C 105.326 122.853,105.029 136.950,107.220 148.400 C 107.451 149.610,107.741 151.276,107.863 152.103 C 107.985 152.929,108.245 153.705,108.442 153.826 C 108.639 153.948,108.800 154.415,108.800 154.864 C 108.800 159.497,119.725 182.075,124.174 186.637 C 124.408 186.877,125.050 187.670,125.600 188.399 C 131.704 196.492,143.098 206.426,152.269 211.651 C 161.689 217.018,172.999 221.117,183.000 222.790 C 184.540 223.047,186.775 223.425,187.967 223.629 C 190.949 224.140,207.731 224.097,211.293 223.570 C 225.323 221.493,239.153 216.737,247.472 211.128 C 248.392 210.507,249.259 210.000,249.400 210.000 C 249.677 210.000,253.273 207.609,253.600 207.207 C 253.710 207.072,254.430 206.529,255.200 206.000 C 255.970 205.471,256.690 204.940,256.800 204.819 C 256.910 204.699,257.990 203.799,259.200 202.820 C 265.460 197.754,273.989 188.230,277.800 182.049 C 278.020 181.692,278.292 181.310,278.404 181.200 C 279.387 180.234,285.031 169.524,286.324 166.171 C 286.572 165.527,287.157 164.010,287.623 162.800 C 288.090 161.590,288.636 160.015,288.836 159.300 C 289.036 158.585,289.392 157.325,289.627 156.500 C 292.304 147.085,293.405 137.478,293.007 127.000 C 292.716 119.341,291.922 114.077,289.944 106.700 C 287.853 98.900,283.175 87.908,279.639 82.487 C 278.738 81.104,278.000 79.827,278.000 79.648 C 278.000 79.470,277.640 78.998,277.200 78.600 C 276.760 78.202,276.400 77.634,276.400 77.338 C 276.400 77.042,276.259 76.800,276.086 76.800 C 275.914 76.800,275.457 76.267,275.072 75.615 C 274.687 74.963,274.153 74.198,273.886 73.915 C 273.619 73.632,272.366 72.121,271.102 70.558 C 262.114 59.442,247.464 48.920,233.600 43.623 C 231.730 42.908,229.840 42.186,229.400 42.017 C 228.554 41.693,226.959 41.222,224.000 40.421 C 222.259 39.950,221.584 39.786,217.494 38.841 C 216.446 38.598,214.973 38.400,214.220 38.400 C 213.468 38.400,212.435 38.244,211.926 38.053 C 210.615 37.562,197.807 37.259,192.800 37.601 M210.119 60.555 C 241.873 70.052,245.411 114.490,215.502 128.171 C 209.984 130.694,206.610 131.396,200.000 131.396 C 193.332 131.396,189.713 130.632,184.400 128.104 C 161.405 117.157,156.684 86.402,175.322 68.964 C 184.628 60.257,198.176 56.983,210.119 60.555 M212.200 140.816 C 232.621 144.016,251.259 156.241,262.662 173.914 C 263.838 175.737,264.800 177.329,264.800 177.452 C 264.800 177.576,265.178 178.208,265.641 178.858 L 266.482 180.039 265.455 181.519 C 254.677 197.061,234.130 209.023,212.000 212.640 C 194.431 215.511,170.090 210.481,156.584 201.189 C 155.633 200.535,154.759 200.000,154.642 200.000 C 152.973 200.000,137.402 185.754,134.659 181.717 L 133.518 180.039 134.359 178.858 C 134.822 178.208,135.200 177.576,135.200 177.452 C 135.200 176.927,139.672 170.359,141.908 167.600 C 150.129 157.458,159.738 150.432,173.200 144.716 C 183.729 140.246,198.890 138.730,212.200 140.816 " stroke="none" fill="#ebf3f3" fill-rule="evenodd"></path><path id="path3" d="M198.733 2.390 C 198.655 2.619,195.851 2.796,191.904 2.821 C 188.222 2.844,185.106 3.029,184.981 3.231 C 184.855 3.434,183.493 3.600,181.953 3.600 C 180.188 3.600,179.244 3.748,179.400 4.000 C 179.629 4.371,177.334 4.612,175.456 4.414 C 175.012 4.367,174.820 4.509,174.980 4.767 C 175.152 5.047,174.742 5.200,173.824 5.200 C 173.041 5.200,172.400 5.380,172.400 5.600 C 172.400 5.820,171.455 6.003,170.300 6.006 C 168.797 6.011,168.370 6.122,168.800 6.400 C 169.130 6.613,169.211 6.791,168.980 6.794 C 168.749 6.797,168.344 6.584,168.080 6.320 C 167.707 5.947,167.600 5.947,167.600 6.320 C 167.600 6.585,167.072 6.800,166.424 6.800 C 165.777 6.800,165.136 6.980,165.000 7.200 C 164.864 7.420,164.123 7.600,163.353 7.600 C 162.583 7.600,162.054 7.764,162.178 7.965 C 162.380 8.291,159.441 9.061,158.700 8.875 C 158.535 8.834,158.400 8.980,158.400 9.200 C 158.400 9.420,157.871 9.600,157.224 9.600 C 156.577 9.600,155.007 10.140,153.735 10.800 C 152.463 11.460,151.012 12.000,150.511 12.000 C 150.010 12.000,149.599 12.135,149.597 12.300 C 149.595 12.465,149.145 12.808,148.596 13.063 C 148.048 13.317,147.691 13.376,147.804 13.194 C 147.916 13.012,146.571 13.595,144.816 14.489 C 143.060 15.383,141.695 16.230,141.783 16.372 C 141.871 16.514,141.460 16.670,140.871 16.719 C 140.282 16.767,139.740 16.985,139.667 17.203 C 139.593 17.422,139.268 17.600,138.943 17.600 C 138.618 17.600,138.464 17.780,138.600 18.000 C 138.804 18.330,138.068 18.499,136.970 18.374 C 136.843 18.359,136.417 18.719,136.023 19.174 C 135.629 19.628,135.012 20.000,134.653 20.000 C 134.294 20.000,134.000 20.180,134.000 20.400 C 134.000 20.620,133.683 20.800,133.296 20.800 C 132.909 20.800,132.368 21.160,132.093 21.600 C 131.818 22.040,131.235 22.400,130.797 22.400 C 130.358 22.400,130.000 22.580,130.000 22.800 C 130.000 23.020,129.719 23.200,129.376 23.200 C 129.033 23.200,128.864 23.380,129.000 23.600 C 129.136 23.820,128.889 24.000,128.451 24.000 C 128.005 24.000,127.542 24.353,127.400 24.800 C 127.260 25.240,126.826 25.600,126.435 25.600 C 126.044 25.600,125.413 25.944,125.033 26.364 C 124.652 26.784,123.904 27.238,123.371 27.372 C 122.837 27.506,122.400 27.892,122.400 28.231 C 122.400 28.570,122.220 28.736,122.000 28.600 C 121.780 28.464,121.600 28.543,121.600 28.776 C 121.600 29.009,121.418 29.200,121.197 29.200 C 120.804 29.200,119.220 30.479,117.357 32.300 C 116.851 32.795,116.291 33.200,116.114 33.200 C 115.937 33.200,115.568 33.560,115.293 34.000 C 115.018 34.440,114.570 34.807,114.297 34.816 C 114.023 34.825,112.810 35.921,111.600 37.252 C 107.510 41.753,103.609 45.600,103.137 45.600 C 102.878 45.600,102.772 45.705,102.900 45.833 C 103.028 45.962,102.833 46.386,102.467 46.776 C 100.889 48.455,98.831 51.025,98.831 51.315 C 98.831 51.488,98.106 52.388,97.220 53.315 C 96.334 54.242,95.607 55.225,95.604 55.500 C 95.602 55.775,95.441 56.000,95.247 56.000 C 94.903 56.000,94.270 57.496,94.357 58.100 C 94.381 58.265,94.149 58.400,93.843 58.400 C 93.376 58.400,92.974 58.918,92.600 60.000 C 92.234 61.060,91.856 61.558,91.558 61.374 C 91.361 61.252,91.194 61.478,91.187 61.876 C 91.171 62.820,90.213 64.071,89.796 63.694 C 89.618 63.532,89.592 63.610,89.740 63.868 C 89.887 64.125,89.736 64.607,89.404 64.939 C 89.072 65.271,88.800 65.926,88.800 66.395 C 88.800 66.864,88.636 67.146,88.435 67.021 C 88.234 66.897,87.830 67.336,87.537 67.998 C 87.244 68.659,86.858 69.200,86.679 69.200 C 86.499 69.200,86.455 69.365,86.580 69.568 C 86.705 69.770,86.552 70.191,86.240 70.503 C 85.928 70.815,85.611 71.505,85.536 72.035 C 85.461 72.566,85.085 73.349,84.700 73.775 C 84.315 74.202,84.000 74.888,84.000 75.299 C 84.000 75.711,83.820 75.936,83.600 75.800 C 83.380 75.664,83.200 75.923,83.200 76.376 C 83.200 76.829,82.990 77.200,82.733 77.200 C 82.477 77.200,82.382 77.315,82.523 77.456 C 82.664 77.597,82.537 78.182,82.242 78.756 C 80.625 81.896,80.000 83.346,80.000 83.953 C 80.000 84.326,79.640 85.337,79.200 86.200 C 78.760 87.063,78.400 88.080,78.400 88.461 C 78.400 88.841,78.208 89.272,77.973 89.417 C 77.738 89.562,77.634 89.912,77.743 90.195 C 77.851 90.477,77.671 91.092,77.342 91.562 C 77.013 92.031,76.808 92.727,76.887 93.107 C 76.965 93.488,76.753 94.038,76.415 94.330 C 75.896 94.776,75.894 94.811,76.400 94.553 C 76.882 94.307,76.908 94.360,76.534 94.823 C 76.278 95.140,76.053 95.535,76.034 95.700 C 76.015 95.865,75.986 96.045,75.969 96.100 C 75.747 96.828,75.523 97.973,75.468 98.667 C 75.431 99.144,75.265 99.669,75.100 99.833 C 74.935 99.998,74.800 100.834,74.800 101.690 C 74.800 102.626,74.640 103.149,74.400 103.000 C 74.154 102.848,74.000 103.503,74.000 104.696 C 74.000 105.765,73.830 106.811,73.623 107.020 C 73.416 107.229,73.205 108.435,73.155 109.700 C 73.104 110.965,72.914 112.000,72.732 112.000 C 72.549 112.000,72.400 113.361,72.400 115.024 C 72.400 116.937,72.253 117.956,72.000 117.800 C 71.780 117.664,71.600 117.934,71.600 118.400 C 71.600 118.866,71.780 119.136,72.000 119.000 C 72.220 118.864,72.400 118.933,72.400 119.153 C 72.400 119.373,72.220 119.664,72.000 119.800 C 71.479 120.122,71.479 125.478,72.000 125.800 C 72.252 125.956,72.400 125.031,72.400 123.304 C 72.400 121.795,72.558 120.389,72.751 120.180 C 72.945 119.971,73.400 118.000,73.763 115.800 C 79.101 83.458,97.836 52.626,123.351 34.188 C 124.864 33.095,126.844 31.652,127.751 30.983 C 132.976 27.124,146.419 19.958,152.800 17.630 C 153.570 17.349,154.560 16.967,155.000 16.781 C 159.873 14.721,170.176 11.951,178.600 10.434 C 199.059 6.751,228.317 9.581,245.200 16.875 C 245.750 17.113,246.560 17.449,247.000 17.622 C 272.328 27.607,294.711 46.524,309.213 70.200 C 312.267 75.186,318.000 86.417,318.000 87.414 C 318.000 87.521,318.339 88.372,318.754 89.304 C 321.829 96.219,325.676 110.312,326.615 118.100 C 326.767 119.365,327.051 120.400,327.246 120.400 C 327.441 120.400,327.600 121.750,327.600 123.400 C 327.600 125.133,327.769 126.400,328.000 126.400 C 328.240 126.400,328.400 124.792,328.400 122.376 C 328.400 119.264,328.287 118.421,327.900 118.653 C 327.560 118.857,327.576 118.737,327.949 118.277 C 328.307 117.836,328.342 117.600,328.049 117.600 C 327.763 117.600,327.600 116.656,327.600 115.000 C 327.600 113.533,327.426 112.400,327.200 112.400 C 326.980 112.400,326.800 112.209,326.800 111.976 C 326.800 111.743,327.025 111.688,327.300 111.853 C 327.695 112.090,327.698 112.028,327.314 111.553 C 327.047 111.223,326.778 110.036,326.715 108.915 C 326.652 107.793,326.465 106.960,326.300 107.062 C 326.049 107.217,325.795 104.900,325.953 103.900 C 325.979 103.735,325.775 103.597,325.500 103.594 C 325.167 103.590,325.200 103.458,325.600 103.200 C 326.000 102.942,326.033 102.810,325.700 102.806 C 325.395 102.802,325.200 102.245,325.200 101.376 C 325.200 100.593,325.062 100.038,324.893 100.142 C 324.725 100.247,324.564 99.515,324.537 98.516 C 324.509 97.518,324.290 96.580,324.051 96.431 C 323.811 96.283,323.688 95.780,323.778 95.313 C 323.868 94.845,323.708 94.374,323.422 94.264 C 323.136 94.154,322.954 93.602,323.016 93.034 C 323.078 92.467,322.965 91.902,322.765 91.778 C 322.564 91.654,322.399 91.158,322.399 90.676 C 322.398 90.194,322.038 89.211,321.599 88.490 C 321.159 87.770,320.800 86.746,320.800 86.214 C 320.800 85.682,320.620 85.136,320.400 85.000 C 320.180 84.864,320.000 84.313,320.000 83.776 C 320.000 83.239,319.820 82.800,319.600 82.800 C 319.380 82.800,319.200 82.451,319.200 82.024 C 319.200 81.597,319.020 81.136,318.800 81.000 C 318.580 80.864,318.400 80.403,318.400 79.976 C 318.400 79.549,318.220 79.200,318.000 79.200 C 317.780 79.200,317.600 78.765,317.600 78.233 C 317.600 77.702,317.465 77.207,317.300 77.133 C 316.868 76.941,315.200 73.628,315.200 72.962 C 315.200 72.653,315.046 72.400,314.857 72.400 C 314.668 72.400,314.087 71.410,313.564 70.200 C 313.042 68.990,312.476 68.000,312.307 68.000 C 312.138 68.000,312.000 67.730,312.000 67.400 C 312.000 67.070,311.820 66.800,311.600 66.800 C 311.380 66.800,311.200 66.506,311.200 66.147 C 311.200 65.788,310.812 65.158,310.339 64.747 C 309.830 64.305,309.691 64.000,310.000 64.000 C 310.309 64.000,310.170 63.695,309.661 63.253 C 309.188 62.842,308.800 62.277,308.800 61.997 C 308.800 61.717,308.485 61.258,308.100 60.976 C 307.715 60.695,307.384 60.315,307.365 60.132 C 307.273 59.246,306.651 58.400,306.091 58.400 C 305.747 58.400,305.581 58.285,305.722 58.145 C 305.862 58.005,305.622 57.392,305.188 56.783 C 304.755 56.175,304.400 55.501,304.400 55.286 C 304.400 55.072,303.695 54.170,302.833 53.282 C 301.971 52.394,301.367 51.566,301.490 51.443 C 301.614 51.320,301.419 51.105,301.057 50.967 C 300.696 50.828,300.400 50.530,300.400 50.304 C 300.400 50.078,300.072 49.603,299.671 49.247 C 299.271 48.891,298.480 47.912,297.915 47.071 C 297.349 46.230,296.777 45.555,296.643 45.571 C 295.843 45.667,295.600 45.535,295.600 45.003 C 295.600 44.675,295.240 44.182,294.800 43.907 C 294.360 43.632,294.000 43.170,294.000 42.880 C 294.000 42.590,293.865 42.427,293.700 42.517 C 293.535 42.608,292.451 41.718,291.292 40.541 C 290.133 39.363,289.283 38.400,289.403 38.400 C 289.524 38.400,289.033 37.793,288.311 37.051 C 287.590 36.309,286.910 35.724,286.800 35.751 C 286.690 35.778,286.515 35.620,286.412 35.400 C 286.169 34.885,284.171 33.200,283.803 33.200 C 283.648 33.200,283.017 32.660,282.400 32.000 C 281.783 31.340,281.081 30.800,280.840 30.800 C 280.598 30.800,280.400 30.620,280.400 30.400 C 280.400 30.180,280.119 30.000,279.776 30.000 C 279.433 30.000,279.264 29.820,279.400 29.600 C 279.536 29.380,279.407 29.200,279.113 29.200 C 278.819 29.200,277.987 28.660,277.264 28.000 C 276.542 27.340,275.825 26.800,275.671 26.800 C 275.518 26.800,274.858 26.305,274.206 25.700 C 273.553 25.095,272.970 24.645,272.910 24.700 C 272.588 24.994,271.989 24.741,272.200 24.400 C 272.337 24.179,272.049 24.000,271.557 24.000 C 271.067 24.000,270.782 23.885,270.923 23.744 C 271.273 23.393,268.699 22.037,268.200 22.310 C 267.980 22.430,267.926 22.388,268.081 22.217 C 268.453 21.803,267.425 20.800,266.629 20.800 C 266.283 20.800,266.000 20.620,266.000 20.400 C 266.000 20.180,265.640 20.000,265.200 20.000 C 264.760 20.000,264.400 19.832,264.400 19.626 C 264.400 19.420,263.780 19.027,263.021 18.753 C 262.263 18.479,261.734 18.107,261.845 17.927 C 261.956 17.747,261.764 17.600,261.418 17.600 C 260.815 17.600,259.218 16.850,258.800 16.371 C 258.559 16.095,257.215 15.523,256.440 15.366 C 256.132 15.304,255.772 15.082,255.640 14.873 C 255.508 14.664,254.632 14.234,253.694 13.919 C 252.756 13.603,252.111 13.222,252.261 13.072 C 252.411 12.923,252.053 12.800,251.467 12.800 C 250.880 12.800,250.400 12.620,250.400 12.400 C 250.400 12.180,250.040 12.000,249.600 12.000 C 249.160 12.000,248.800 11.859,248.800 11.687 C 248.800 11.515,248.361 11.338,247.824 11.294 C 247.287 11.249,246.193 10.845,245.393 10.396 C 244.593 9.947,243.727 9.622,243.469 9.673 C 243.211 9.725,242.550 9.520,242.000 9.216 C 241.450 8.913,240.952 8.711,240.894 8.767 C 240.598 9.051,237.629 8.276,237.822 7.965 C 237.946 7.763,237.140 7.600,236.024 7.600 C 234.911 7.600,234.000 7.420,234.000 7.200 C 234.000 6.980,233.550 6.800,233.000 6.800 C 232.450 6.800,232.000 6.620,232.000 6.400 C 232.000 6.180,231.291 6.000,230.424 6.000 C 229.557 6.000,228.736 5.820,228.600 5.600 C 228.464 5.380,227.643 5.200,226.776 5.200 C 225.909 5.200,225.200 5.046,225.200 4.858 C 225.200 4.670,223.985 4.483,222.500 4.443 C 221.015 4.403,219.740 4.197,219.667 3.985 C 219.593 3.773,218.569 3.600,217.390 3.600 C 216.212 3.600,215.153 3.448,215.039 3.263 C 214.924 3.077,211.809 2.888,208.115 2.842 C 204.327 2.795,201.342 2.593,201.267 2.379 C 201.091 1.879,198.905 1.888,198.733 2.390 M133.000 198.000 C 134.306 199.320,135.465 200.400,135.575 200.400 C 135.685 200.400,134.706 199.320,133.400 198.000 C 132.094 196.680,130.935 195.600,130.825 195.600 C 130.715 195.600,131.694 196.680,133.000 198.000 M193.300 225.076 C 193.685 225.176,194.315 225.176,194.700 225.076 C 195.085 224.975,194.770 224.893,194.000 224.893 C 193.230 224.893,192.915 224.975,193.300 225.076 M204.100 225.076 C 204.485 225.176,205.115 225.176,205.500 225.076 C 205.885 224.975,205.570 224.893,204.800 224.893 C 204.030 224.893,203.715 224.975,204.100 225.076 " stroke="none" fill="#fc8b83" fill-rule="evenodd"></path><path id="path4" d="M193.700 37.076 C 194.085 37.176,194.715 37.176,195.100 37.076 C 195.485 36.975,195.170 36.893,194.400 36.893 C 193.630 36.893,193.315 36.975,193.700 37.076 M204.900 37.076 C 205.285 37.176,205.915 37.176,206.300 37.076 C 206.685 36.975,206.370 36.893,205.600 36.893 C 204.830 36.893,204.515 36.975,204.900 37.076 M189.700 37.476 C 190.085 37.576,190.715 37.576,191.100 37.476 C 191.485 37.375,191.170 37.293,190.400 37.293 C 189.630 37.293,189.315 37.375,189.700 37.476 M208.900 37.476 C 209.285 37.576,209.915 37.576,210.300 37.476 C 210.685 37.375,210.370 37.293,209.600 37.293 C 208.830 37.293,208.515 37.375,208.900 37.476 M265.800 64.400 C 267.328 65.940,268.669 67.200,268.779 67.200 C 268.889 67.200,267.728 65.940,266.200 64.400 C 264.672 62.860,263.331 61.600,263.221 61.600 C 263.111 61.600,264.272 62.860,265.800 64.400 M130.575 67.700 L 129.400 69.000 130.700 67.825 C 131.415 67.179,132.000 66.594,132.000 66.525 C 132.000 66.216,131.670 66.488,130.575 67.700 M292.893 120.400 C 292.893 121.170,292.975 121.485,293.076 121.100 C 293.176 120.715,293.176 120.085,293.076 119.700 C 292.975 119.315,292.893 119.630,292.893 120.400 M105.320 126.800 C 105.320 128.010,105.395 128.505,105.487 127.900 C 105.578 127.295,105.578 126.305,105.487 125.700 C 105.395 125.095,105.320 125.590,105.320 126.800 M105.320 137.200 C 105.320 138.410,105.395 138.905,105.487 138.300 C 105.578 137.695,105.578 136.705,105.487 136.100 C 105.395 135.495,105.320 135.990,105.320 137.200 M293.293 137.200 C 293.293 137.970,293.375 138.285,293.476 137.900 C 293.576 137.515,293.576 136.885,293.476 136.500 C 293.375 136.115,293.293 136.430,293.293 137.200 M292.901 141.800 C 292.905 142.680,292.987 142.993,293.083 142.495 C 293.179 141.998,293.175 141.278,293.075 140.895 C 292.975 140.513,292.896 140.920,292.901 141.800 M132.400 197.000 C 133.595 198.210,134.663 199.200,134.773 199.200 C 134.883 199.200,133.995 198.210,132.800 197.000 C 131.605 195.790,130.537 194.800,130.427 194.800 C 130.317 194.800,131.205 195.790,132.400 197.000 M265.381 197.700 L 263.800 199.400 265.500 197.819 C 267.081 196.348,267.384 196.000,267.081 196.000 C 267.016 196.000,266.251 196.765,265.381 197.700 M136.000 200.125 C 136.000 200.194,136.585 200.779,137.300 201.425 L 138.600 202.600 137.425 201.300 C 136.330 200.088,136.000 199.816,136.000 200.125 M189.105 224.283 C 189.602 224.379,190.322 224.375,190.705 224.275 C 191.087 224.175,190.680 224.096,189.800 224.101 C 188.920 224.105,188.607 224.187,189.105 224.283 M208.705 224.283 C 209.202 224.379,209.922 224.375,210.305 224.275 C 210.687 224.175,210.280 224.096,209.400 224.101 C 208.520 224.105,208.207 224.187,208.705 224.283 M197.315 224.696 C 198.588 224.776,200.568 224.775,201.715 224.694 C 202.862 224.614,201.820 224.549,199.400 224.550 C 196.980 224.551,196.042 224.616,197.315 224.696 " stroke="none" fill="#f4b4ac" fill-rule="evenodd"></path><path id="path5" d="M193.600 37.165 C 192.390 37.294,195.270 37.401,200.000 37.403 C 204.818 37.405,207.545 37.292,206.200 37.147 C 203.300 36.833,196.624 36.842,193.600 37.165 M186.200 38.000 L 185.000 38.305 186.200 38.325 C 186.860 38.335,187.760 38.189,188.200 38.000 L 189.000 37.656 188.200 37.675 C 187.760 37.686,186.860 37.832,186.200 38.000 M211.800 38.000 C 212.240 38.189,213.140 38.335,213.800 38.325 L 215.000 38.305 213.800 38.000 C 213.140 37.832,212.240 37.686,211.800 37.675 L 211.000 37.656 211.800 38.000 M181.600 38.800 C 180.796 39.057,180.757 39.123,181.400 39.132 C 181.840 39.138,182.560 38.989,183.000 38.800 C 184.019 38.362,182.968 38.362,181.600 38.800 M217.000 38.800 C 217.440 38.989,218.160 39.138,218.600 39.132 C 219.243 39.123,219.204 39.057,218.400 38.800 C 217.032 38.362,215.981 38.362,217.000 38.800 M178.000 39.600 C 177.176 39.864,177.141 39.926,177.800 39.954 C 178.240 39.973,178.870 39.813,179.200 39.600 C 179.901 39.147,179.414 39.147,178.000 39.600 M220.800 39.600 C 221.130 39.813,221.760 39.978,222.200 39.966 L 223.000 39.944 222.200 39.600 C 221.004 39.086,220.005 39.086,220.800 39.600 M164.533 43.922 C 163.616 44.295,162.716 44.751,162.533 44.936 C 162.112 45.360,165.666 43.999,166.180 43.540 C 166.693 43.081,166.480 43.131,164.533 43.922 M234.758 44.037 C 235.725 44.466,236.588 44.745,236.675 44.658 C 236.848 44.486,233.765 43.182,233.292 43.228 C 233.131 43.244,233.791 43.608,234.758 44.037 M160.400 45.800 C 159.850 46.114,159.580 46.372,159.800 46.372 C 160.020 46.372,160.650 46.114,161.200 45.800 C 161.750 45.486,162.020 45.228,161.800 45.228 C 161.580 45.228,160.950 45.486,160.400 45.800 M238.800 45.800 C 239.350 46.114,239.980 46.372,240.200 46.372 C 240.420 46.372,240.150 46.114,239.600 45.800 C 239.050 45.486,238.420 45.228,238.200 45.228 C 237.980 45.228,238.250 45.486,238.800 45.800 M156.700 47.626 C 155.435 48.279,154.400 48.903,154.400 49.012 C 154.400 49.122,155.480 48.666,156.800 48.000 C 158.120 47.334,159.200 46.701,159.200 46.594 C 159.200 46.328,159.274 46.297,156.700 47.626 M240.800 46.584 C 240.800 46.694,241.520 47.151,242.400 47.600 C 243.280 48.049,244.000 48.326,244.000 48.216 C 244.000 48.106,243.280 47.649,242.400 47.200 C 241.520 46.751,240.800 46.474,240.800 46.584 M152.700 49.829 C 151.205 50.640,151.296 50.978,152.800 50.200 C 153.460 49.859,154.000 49.494,154.000 49.390 C 154.000 49.132,153.957 49.147,152.700 49.829 M247.200 50.190 C 247.200 50.294,247.785 50.665,248.500 51.014 L 249.800 51.648 248.800 50.833 C 247.837 50.048,247.200 49.792,247.200 50.190 M145.200 54.800 C 144.650 55.230,144.397 55.586,144.638 55.591 C 144.879 55.596,145.402 55.240,145.800 54.800 C 146.712 53.792,146.488 53.792,145.200 54.800 M253.740 54.303 C 253.896 54.556,254.591 55.167,255.284 55.660 C 255.977 56.154,256.417 56.350,256.260 56.097 C 256.104 55.844,255.409 55.233,254.716 54.740 C 254.023 54.246,253.583 54.050,253.740 54.303 M141.800 57.473 C 140.195 58.921,140.813 58.613,142.931 56.909 C 143.553 56.409,143.913 56.007,143.731 56.015 C 143.549 56.023,142.680 56.680,141.800 57.473 M134.038 64.423 C 131.157 67.295,128.800 69.813,128.800 70.019 C 128.800 70.224,130.015 69.089,131.501 67.496 C 132.986 65.903,135.275 63.610,136.588 62.400 C 137.901 61.190,139.219 59.975,139.516 59.700 C 139.814 59.425,139.881 59.200,139.666 59.200 C 139.451 59.200,136.919 61.550,134.038 64.423 M260.846 60.100 C 260.945 60.155,263.000 62.090,265.413 64.400 L 269.800 68.600 265.607 64.300 C 263.301 61.935,261.246 60.000,261.040 60.000 C 260.835 60.000,260.747 60.045,260.846 60.100 M270.000 68.966 C 270.000 69.101,270.810 70.206,271.800 71.421 C 272.790 72.637,273.596 73.489,273.591 73.316 C 273.581 72.943,270.000 68.606,270.000 68.966 M127.359 71.700 C 125.607 73.721,125.087 74.400,125.290 74.400 C 125.407 74.400,126.167 73.590,126.979 72.600 C 128.481 70.766,128.779 70.063,127.359 71.700 M274.837 75.200 C 275.996 76.996,276.000 77.001,275.998 76.567 C 275.997 76.365,275.532 75.660,274.965 75.000 L 273.934 73.800 274.837 75.200 M123.827 76.200 C 123.240 76.970,122.903 77.598,123.080 77.595 C 123.256 77.592,123.807 76.962,124.304 76.195 C 125.468 74.397,125.200 74.400,123.827 76.200 M276.400 77.538 C 276.400 77.724,276.788 78.219,277.262 78.638 L 278.124 79.400 277.416 78.300 C 276.686 77.166,276.400 76.951,276.400 77.538 M278.013 79.709 C 277.998 80.059,280.023 83.200,280.263 83.200 C 280.485 83.200,279.382 81.156,278.643 80.200 C 278.303 79.760,278.020 79.539,278.013 79.709 M119.400 82.800 C 119.059 83.460,118.869 84.000,118.979 84.000 C 119.089 84.000,119.459 83.460,119.800 82.800 C 120.141 82.140,120.331 81.600,120.221 81.600 C 120.111 81.600,119.741 82.140,119.400 82.800 M281.000 84.800 C 281.341 85.460,281.711 86.000,281.821 86.000 C 281.931 86.000,281.741 85.460,281.400 84.800 C 281.059 84.140,280.689 83.600,280.579 83.600 C 280.469 83.600,280.659 84.140,281.000 84.800 M115.381 90.037 C 115.029 90.718,114.812 91.345,114.899 91.432 C 114.986 91.519,115.356 90.962,115.722 90.195 C 116.544 88.470,116.259 88.338,115.381 90.037 M284.828 92.200 C 284.828 92.420,285.086 93.050,285.400 93.600 C 285.714 94.150,285.972 94.420,285.972 94.200 C 285.972 93.980,285.714 93.350,285.400 92.800 C 285.086 92.250,284.828 91.980,284.828 92.200 M112.253 96.935 C 111.525 98.678,111.044 100.253,111.317 100.000 C 111.649 99.693,113.214 95.600,113.000 95.600 C 112.896 95.600,112.560 96.201,112.253 96.935 M286.997 97.400 C 288.476 101.998,289.340 104.394,289.471 104.262 C 289.668 104.066,287.664 98.021,287.130 97.200 C 286.829 96.738,286.799 96.784,286.997 97.400 M289.606 105.433 C 289.609 105.855,289.795 106.470,290.018 106.800 C 290.315 107.238,290.352 107.076,290.156 106.200 C 289.827 104.729,289.598 104.410,289.606 105.433 M290.406 108.433 C 290.409 108.965,290.589 109.670,290.806 110.000 C 291.082 110.422,291.123 110.185,290.942 109.200 C 290.625 107.475,290.398 107.149,290.406 108.433 M108.446 108.467 C 108.421 108.834,108.296 109.464,108.170 109.867 C 107.952 110.562,107.963 110.563,108.397 109.887 C 108.648 109.496,108.773 108.866,108.673 108.487 C 108.511 107.868,108.488 107.866,108.446 108.467 M107.450 112.450 C 107.117 114.117,107.440 114.440,107.800 112.800 C 107.952 112.109,107.993 111.459,107.891 111.358 C 107.789 111.256,107.591 111.747,107.450 112.450 M291.228 112.033 C 291.244 112.565,291.419 113.360,291.619 113.800 C 291.871 114.358,291.907 114.115,291.738 113.000 C 291.455 111.143,291.187 110.636,291.228 112.033 M106.622 116.622 C 106.472 117.425,106.438 118.172,106.548 118.282 C 106.658 118.392,106.872 117.825,107.022 117.022 C 107.173 116.219,107.206 115.473,107.096 115.363 C 106.986 115.253,106.773 115.819,106.622 116.622 M292.040 116.633 C 292.062 117.275,292.233 118.250,292.420 118.800 C 292.649 119.474,292.684 119.149,292.528 117.800 C 292.269 115.550,291.979 114.859,292.040 116.633 M105.846 122.246 C 105.700 123.493,105.659 124.593,105.757 124.690 C 105.854 124.788,106.061 123.854,106.215 122.615 C 106.370 121.377,106.410 120.277,106.305 120.171 C 106.199 120.066,105.993 120.999,105.846 122.246 M293.000 131.000 C 293.000 136.280,293.114 139.430,293.253 138.000 C 293.393 136.570,293.506 133.420,293.506 131.000 C 293.506 128.580,293.393 125.430,293.253 124.000 C 293.114 122.570,293.000 125.720,293.000 131.000 M105.340 132.000 C 105.340 133.870,105.409 134.635,105.493 133.700 C 105.577 132.765,105.577 131.235,105.493 130.300 C 105.409 129.365,105.340 130.130,105.340 132.000 M105.877 141.400 C 106.000 142.720,106.168 143.875,106.250 143.967 C 106.518 144.264,106.315 141.434,105.980 140.200 C 105.765 139.411,105.730 139.822,105.877 141.400 M292.276 143.610 C 292.130 144.155,292.028 145.140,292.049 145.800 C 292.080 146.757,292.159 146.636,292.442 145.200 C 292.829 143.233,292.702 142.017,292.276 143.610 M106.662 147.000 C 106.796 147.880,106.972 148.675,107.053 148.767 C 107.356 149.110,107.129 146.968,106.781 146.200 C 106.529 145.642,106.493 145.885,106.662 147.000 M291.449 148.615 C 291.312 148.973,291.218 149.656,291.241 150.133 C 291.267 150.681,291.403 150.486,291.610 149.603 C 291.960 148.116,291.865 147.533,291.449 148.615 M107.444 151.000 C 107.773 152.471,108.002 152.790,107.994 151.767 C 107.991 151.345,107.805 150.730,107.582 150.400 C 107.285 149.962,107.248 150.124,107.444 151.000 M290.649 152.215 C 290.512 152.573,290.416 153.256,290.436 153.733 C 290.462 154.347,290.585 154.208,290.859 153.256 C 291.257 151.872,291.094 151.058,290.649 152.215 M108.028 153.876 C 108.118 154.915,108.744 155.796,108.772 154.924 C 108.787 154.442,108.620 153.936,108.400 153.800 C 108.180 153.664,108.013 153.698,108.028 153.876 M289.849 155.415 C 289.712 155.773,289.615 156.366,289.634 156.733 C 289.653 157.100,289.827 156.869,290.021 156.220 C 290.398 154.958,290.265 154.333,289.849 155.415 M289.049 158.215 C 288.912 158.573,288.815 159.166,288.834 159.533 C 288.853 159.900,289.027 159.669,289.221 159.020 C 289.598 157.758,289.465 157.133,289.049 158.215 M287.691 162.500 C 287.010 164.384,287.104 164.894,287.826 163.230 C 288.153 162.477,288.366 161.699,288.301 161.502 C 288.235 161.305,287.960 161.754,287.691 162.500 M286.390 165.800 C 286.176 166.350,285.809 167.295,285.575 167.900 C 285.341 168.505,285.314 168.820,285.515 168.600 C 285.986 168.083,287.258 164.800,286.987 164.800 C 286.873 164.800,286.605 165.250,286.390 165.800 M283.484 172.214 C 282.671 173.856,282.093 175.200,282.198 175.200 C 282.465 175.200,285.285 169.551,285.106 169.373 C 285.027 169.293,284.297 170.572,283.484 172.214 M114.000 170.143 C 114.000 170.578,116.787 176.000,117.010 176.000 C 117.120 176.000,116.557 174.695,115.758 173.100 C 114.260 170.107,114.000 169.670,114.000 170.143 M279.400 179.600 C 279.059 180.260,278.869 180.800,278.979 180.800 C 279.089 180.800,279.459 180.260,279.800 179.600 C 280.141 178.940,280.331 178.400,280.221 178.400 C 280.111 178.400,279.741 178.940,279.400 179.600 M277.129 183.100 C 276.178 184.218,274.728 186.400,274.935 186.400 C 275.040 186.400,275.772 185.500,276.562 184.400 C 277.985 182.419,278.277 181.750,277.129 183.100 M271.299 190.700 C 269.524 192.845,266.637 195.995,264.882 197.700 C 263.127 199.405,261.831 200.800,262.001 200.800 C 262.469 200.800,270.735 192.075,272.927 189.268 C 275.885 185.478,274.906 186.339,271.299 190.700 M129.524 193.500 C 132.759 197.070,136.000 200.281,136.000 199.917 C 136.000 199.779,134.875 198.584,133.500 197.261 C 132.125 195.938,130.190 193.861,129.200 192.647 C 128.210 191.433,127.246 190.430,127.058 190.419 C 126.869 190.409,127.979 191.795,129.524 193.500 M137.374 201.127 C 138.020 201.826,139.640 203.226,140.974 204.237 C 143.475 206.132,142.774 205.440,138.600 201.894 C 137.280 200.773,136.728 200.427,137.374 201.127 M259.970 202.300 L 259.000 203.400 260.200 202.400 C 260.860 201.850,261.475 201.355,261.567 201.300 C 261.658 201.245,261.555 201.200,261.336 201.200 C 261.118 201.200,260.503 201.695,259.970 202.300 M254.905 206.125 C 254.193 206.606,253.608 207.144,253.605 207.320 C 253.602 207.497,254.230 207.160,255.000 206.573 C 255.770 205.986,256.400 205.436,256.400 205.353 C 256.400 205.127,256.319 205.169,254.905 206.125 M144.800 206.982 C 144.800 207.085,145.835 207.866,147.100 208.715 C 149.901 210.598,150.400 210.895,150.400 210.682 C 150.400 210.592,149.140 209.680,147.600 208.655 C 146.060 207.631,144.800 206.878,144.800 206.982 M248.000 210.833 L 247.000 211.648 248.300 211.014 C 249.015 210.665,249.600 210.294,249.600 210.190 C 249.600 209.792,248.963 210.048,248.000 210.833 M240.800 214.800 C 240.030 215.222,239.544 215.574,239.720 215.583 C 240.144 215.605,242.400 214.432,242.400 214.190 C 242.400 213.928,242.377 213.937,240.800 214.800 M163.600 217.414 C 163.600 217.693,166.506 218.831,166.891 218.703 C 167.082 218.639,166.420 218.284,165.419 217.913 C 164.419 217.542,163.600 217.317,163.600 217.414 M227.256 220.059 C 226.517 220.272,225.987 220.520,226.079 220.612 C 226.281 220.814,229.200 220.037,229.200 219.781 C 229.200 219.546,228.882 219.591,227.256 220.059 M173.633 220.944 C 173.725 221.023,174.340 221.208,175.000 221.356 C 175.876 221.552,176.038 221.515,175.600 221.218 C 175.060 220.853,173.232 220.598,173.633 220.944 M223.600 221.218 C 223.162 221.515,223.324 221.552,224.200 221.356 C 225.671 221.027,225.990 220.798,224.967 220.806 C 224.545 220.809,223.930 220.995,223.600 221.218 M176.433 221.747 C 176.525 221.828,177.320 222.004,178.200 222.138 C 179.315 222.307,179.558 222.271,179.000 222.019 C 178.232 221.671,176.090 221.444,176.433 221.747 M181.000 222.800 C 182.692 223.231,184.144 223.231,182.800 222.800 C 182.250 222.624,181.350 222.483,180.800 222.487 C 179.902 222.494,179.922 222.526,181.000 222.800 M216.200 222.819 C 215.642 223.071,215.885 223.107,217.000 222.938 C 217.880 222.804,218.675 222.628,218.767 222.547 C 219.110 222.244,216.968 222.471,216.200 222.819 M184.433 223.350 C 184.525 223.432,185.680 223.600,187.000 223.723 C 188.578 223.870,188.989 223.835,188.200 223.620 C 186.966 223.285,184.136 223.082,184.433 223.350 M210.600 223.620 C 209.811 223.835,210.222 223.870,211.800 223.723 C 213.120 223.600,214.275 223.432,214.367 223.350 C 214.664 223.082,211.834 223.285,210.600 223.620 M195.300 224.298 C 197.665 224.369,201.535 224.369,203.900 224.298 C 206.265 224.228,204.330 224.170,199.600 224.170 C 194.870 224.170,192.935 224.228,195.300 224.298 " stroke="none" fill="#f4bcb8" fill-rule="evenodd"></path><path id="path6" d="M196.900 36.697 C 198.605 36.772,201.395 36.772,203.100 36.697 C 204.805 36.622,203.410 36.561,200.000 36.561 C 196.590 36.561,195.195 36.622,196.900 36.697 M187.105 37.483 C 187.602 37.579,188.322 37.575,188.705 37.475 C 189.087 37.375,188.680 37.296,187.800 37.301 C 186.920 37.305,186.607 37.387,187.105 37.483 M211.505 37.483 C 212.002 37.579,212.722 37.575,213.105 37.475 C 213.487 37.375,213.080 37.296,212.200 37.301 C 211.320 37.305,211.007 37.387,211.505 37.483 M181.200 38.406 C 180.778 38.682,181.015 38.723,182.000 38.542 C 183.725 38.225,184.051 37.998,182.767 38.006 C 182.235 38.009,181.530 38.189,181.200 38.406 M216.433 38.143 C 216.525 38.221,217.230 38.401,218.000 38.542 C 218.985 38.723,219.222 38.682,218.800 38.406 C 218.258 38.050,216.037 37.803,216.433 38.143 M220.433 38.944 C 220.525 39.023,221.140 39.208,221.800 39.356 C 222.676 39.552,222.838 39.515,222.400 39.218 C 221.860 38.853,220.032 38.598,220.433 38.944 M147.800 52.400 C 147.140 52.837,146.780 53.192,147.000 53.188 C 147.401 53.182,149.576 51.623,149.200 51.612 C 149.090 51.608,148.460 51.963,147.800 52.400 M133.192 64.700 L 129.400 68.600 133.300 64.808 C 136.922 61.286,137.382 60.800,137.092 60.800 C 137.033 60.800,135.278 62.555,133.192 64.700 M266.000 64.200 C 267.417 65.630,268.667 66.800,268.777 66.800 C 268.887 66.800,267.817 65.630,266.400 64.200 C 264.983 62.770,263.733 61.600,263.623 61.600 C 263.513 61.600,264.583 62.770,266.000 64.200 M268.800 67.325 C 268.800 67.394,269.385 67.979,270.100 68.625 L 271.400 69.800 270.225 68.500 C 269.130 67.288,268.800 67.016,268.800 67.325 M291.844 112.600 C 292.173 114.071,292.402 114.390,292.394 113.367 C 292.391 112.945,292.205 112.330,291.982 112.000 C 291.685 111.562,291.648 111.724,291.844 112.600 M292.668 117.400 C 292.971 119.377,293.202 119.714,293.194 118.167 C 293.191 117.525,293.016 116.730,292.805 116.400 C 292.545 115.991,292.501 116.310,292.668 117.400 M105.309 123.200 C 105.309 124.190,105.387 124.595,105.482 124.100 C 105.578 123.605,105.578 122.795,105.482 122.300 C 105.387 121.805,105.309 122.210,105.309 123.200 M293.765 131.200 C 293.765 135.050,293.825 136.625,293.898 134.700 C 293.971 132.775,293.971 129.625,293.898 127.700 C 293.825 125.775,293.765 127.350,293.765 131.200 M104.937 132.200 C 104.939 133.960,105.009 134.630,105.093 133.689 C 105.178 132.749,105.177 131.309,105.091 130.489 C 105.005 129.670,104.936 130.440,104.937 132.200 M105.228 140.633 C 105.244 141.495,105.409 142.560,105.596 143.000 C 105.808 143.498,105.851 142.969,105.712 141.600 C 105.444 138.965,105.189 138.457,105.228 140.633 M292.854 143.867 C 292.825 144.344,292.696 145.064,292.570 145.467 C 292.352 146.161,292.364 146.162,292.796 145.488 C 293.047 145.097,293.175 144.377,293.081 143.888 C 292.909 143.001,292.909 143.001,292.854 143.867 M106.006 146.433 C 106.009 146.965,106.189 147.670,106.406 148.000 C 106.682 148.422,106.723 148.185,106.542 147.200 C 106.225 145.475,105.998 145.149,106.006 146.433 M292.046 148.467 C 292.021 148.834,291.896 149.464,291.770 149.867 C 291.552 150.562,291.563 150.563,291.997 149.887 C 292.248 149.496,292.373 148.866,292.273 148.487 C 292.111 147.868,292.088 147.866,292.046 148.467 M119.149 180.600 C 119.365 181.040,119.834 181.760,120.193 182.200 L 120.844 183.000 120.451 182.200 C 120.235 181.760,119.766 181.040,119.407 180.600 L 118.756 179.800 119.149 180.600 M128.000 192.525 C 128.000 192.594,128.585 193.179,129.300 193.825 L 130.600 195.000 129.425 193.700 C 128.330 192.488,128.000 192.216,128.000 192.525 M268.975 194.100 L 267.800 195.400 269.100 194.225 C 269.815 193.579,270.400 192.994,270.400 192.925 C 270.400 192.616,270.070 192.888,268.975 194.100 M136.200 200.800 C 137.059 201.680,137.852 202.400,137.962 202.400 C 138.072 202.400,137.459 201.680,136.600 200.800 C 135.741 199.920,134.948 199.200,134.838 199.200 C 134.728 199.200,135.341 199.920,136.200 200.800 M262.181 200.900 L 260.600 202.600 262.300 201.019 C 263.881 199.548,264.184 199.200,263.881 199.200 C 263.816 199.200,263.051 199.965,262.181 200.900 M247.000 212.000 C 246.340 212.437,245.980 212.792,246.200 212.788 C 246.601 212.782,248.776 211.223,248.400 211.212 C 248.290 211.208,247.660 211.563,247.000 212.000 M186.000 223.994 C 186.330 224.211,187.035 224.391,187.567 224.394 C 188.851 224.402,188.525 224.175,186.800 223.858 C 185.815 223.677,185.578 223.718,186.000 223.994 M211.600 224.000 C 210.796 224.257,210.757 224.323,211.400 224.332 C 211.840 224.338,212.560 224.189,213.000 224.000 C 214.019 223.562,212.968 223.562,211.600 224.000 M194.000 224.870 C 194.990 225.019,197.420 225.141,199.400 225.141 C 201.380 225.141,203.810 225.019,204.800 224.870 C 205.802 224.720,203.407 224.600,199.400 224.600 C 195.393 224.600,192.998 224.720,194.000 224.870 " stroke="none" fill="#f8908c" fill-rule="evenodd"></path><path id="path7" d="M196.900 36.697 C 198.605 36.772,201.395 36.772,203.100 36.697 C 204.805 36.622,203.410 36.561,200.000 36.561 C 196.590 36.561,195.195 36.622,196.900 36.697 M187.105 37.483 C 187.602 37.579,188.322 37.575,188.705 37.475 C 189.087 37.375,188.680 37.296,187.800 37.301 C 186.920 37.305,186.607 37.387,187.105 37.483 M211.505 37.483 C 212.002 37.579,212.722 37.575,213.105 37.475 C 213.487 37.375,213.080 37.296,212.200 37.301 C 211.320 37.305,211.007 37.387,211.505 37.483 M181.200 38.406 C 180.778 38.682,181.015 38.723,182.000 38.542 C 183.725 38.225,184.051 37.998,182.767 38.006 C 182.235 38.009,181.530 38.189,181.200 38.406 M216.433 38.143 C 216.525 38.221,217.230 38.401,218.000 38.542 C 218.985 38.723,219.222 38.682,218.800 38.406 C 218.258 38.050,216.037 37.803,216.433 38.143 M220.433 38.944 C 220.525 39.023,221.140 39.208,221.800 39.356 C 222.676 39.552,222.838 39.515,222.400 39.218 C 221.860 38.853,220.032 38.598,220.433 38.944 M147.800 52.400 C 147.140 52.837,146.780 53.192,147.000 53.188 C 147.401 53.182,149.576 51.623,149.200 51.612 C 149.090 51.608,148.460 51.963,147.800 52.400 M133.192 64.700 L 129.400 68.600 133.300 64.808 C 136.922 61.286,137.382 60.800,137.092 60.800 C 137.033 60.800,135.278 62.555,133.192 64.700 M266.000 64.200 C 267.417 65.630,268.667 66.800,268.777 66.800 C 268.887 66.800,267.817 65.630,266.400 64.200 C 264.983 62.770,263.733 61.600,263.623 61.600 C 263.513 61.600,264.583 62.770,266.000 64.200 M268.800 67.325 C 268.800 67.394,269.385 67.979,270.100 68.625 L 271.400 69.800 270.225 68.500 C 269.130 67.288,268.800 67.016,268.800 67.325 M291.844 112.600 C 292.173 114.071,292.402 114.390,292.394 113.367 C 292.391 112.945,292.205 112.330,291.982 112.000 C 291.685 111.562,291.648 111.724,291.844 112.600 M292.668 117.400 C 292.971 119.377,293.202 119.714,293.194 118.167 C 293.191 117.525,293.016 116.730,292.805 116.400 C 292.545 115.991,292.501 116.310,292.668 117.400 M105.309 123.200 C 105.309 124.190,105.387 124.595,105.482 124.100 C 105.578 123.605,105.578 122.795,105.482 122.300 C 105.387 121.805,105.309 122.210,105.309 123.200 M293.765 131.200 C 293.765 135.050,293.825 136.625,293.898 134.700 C 293.971 132.775,293.971 129.625,293.898 127.700 C 293.825 125.775,293.765 127.350,293.765 131.200 M104.937 132.200 C 104.939 133.960,105.009 134.630,105.093 133.689 C 105.178 132.749,105.177 131.309,105.091 130.489 C 105.005 129.670,104.936 130.440,104.937 132.200 M105.228 140.633 C 105.244 141.495,105.409 142.560,105.596 143.000 C 105.808 143.498,105.851 142.969,105.712 141.600 C 105.444 138.965,105.189 138.457,105.228 140.633 M292.854 143.867 C 292.825 144.344,292.696 145.064,292.570 145.467 C 292.352 146.161,292.364 146.162,292.796 145.488 C 293.047 145.097,293.175 144.377,293.081 143.888 C 292.909 143.001,292.909 143.001,292.854 143.867 M106.006 146.433 C 106.009 146.965,106.189 147.670,106.406 148.000 C 106.682 148.422,106.723 148.185,106.542 147.200 C 106.225 145.475,105.998 145.149,106.006 146.433 M292.046 148.467 C 292.021 148.834,291.896 149.464,291.770 149.867 C 291.552 150.562,291.563 150.563,291.997 149.887 C 292.248 149.496,292.373 148.866,292.273 148.487 C 292.111 147.868,292.088 147.866,292.046 148.467 M119.149 180.600 C 119.365 181.040,119.834 181.760,120.193 182.200 L 120.844 183.000 120.451 182.200 C 120.235 181.760,119.766 181.040,119.407 180.600 L 118.756 179.800 119.149 180.600 M128.000 192.525 C 128.000 192.594,128.585 193.179,129.300 193.825 L 130.600 195.000 129.425 193.700 C 128.330 192.488,128.000 192.216,128.000 192.525 M268.975 194.100 L 267.800 195.400 269.100 194.225 C 269.815 193.579,270.400 192.994,270.400 192.925 C 270.400 192.616,270.070 192.888,268.975 194.100 M136.200 200.800 C 137.059 201.680,137.852 202.400,137.962 202.400 C 138.072 202.400,137.459 201.680,136.600 200.800 C 135.741 199.920,134.948 199.200,134.838 199.200 C 134.728 199.200,135.341 199.920,136.200 200.800 M262.181 200.900 L 260.600 202.600 262.300 201.019 C 263.881 199.548,264.184 199.200,263.881 199.200 C 263.816 199.200,263.051 199.965,262.181 200.900 M247.000 212.000 C 246.340 212.437,245.980 212.792,246.200 212.788 C 246.601 212.782,248.776 211.223,248.400 211.212 C 248.290 211.208,247.660 211.563,247.000 212.000 M186.000 223.994 C 186.330 224.211,187.035 224.391,187.567 224.394 C 188.851 224.402,188.525 224.175,186.800 223.858 C 185.815 223.677,185.578 223.718,186.000 223.994 M211.600 224.000 C 210.796 224.257,210.757 224.323,211.400 224.332 C 211.840 224.338,212.560 224.189,213.000 224.000 C 214.019 223.562,212.968 223.562,211.600 224.000 M194.000 224.870 C 194.990 225.019,197.420 225.141,199.400 225.141 C 201.380 225.141,203.810 225.019,204.800 224.870 C 205.802 224.720,203.407 224.600,199.400 224.600 C 195.393 224.600,192.998 224.720,194.000 224.870 " stroke="none" fill="#f8908c" fill-rule="evenodd"></path></g></svg>